<?xml version="1.0" encoding="utf-8"?>
<svg xmlns="http://www.w3.org/2000/svg" viewBox="0 0 500 500">
  <g id="Layer_1" style="" transform="matrix(9.32573, 0, 0, 7.59689, -645.539, -447.247)">
    <g id="Brain-power_1_" transform="matrix(1, 0, 0, 1, 63.8254, 60.0304)">
      <path d="M58.0342522,33.1416016c-0.0185013-0.2275009-0.1161957-0.4419022-0.2733994-0.6069031 c-0.0360985-0.0375977-3.4618988-3.6254978-5.5917969-6.6713982c1.0966988-3.9526005,0.6405983-7.5419998,0.2304955-9.4496994 c0.592701-0.0395012,1.2168007-0.2085018,1.6473999-0.6621008c0.2627029-0.2768002,0.6612015-0.8926001,0.3770027-1.9071999 C51.7217522,4.2221999,45.7667542,3.5669,44.1973534,3.5669c-0.0078011,0-0.0156021,0-0.0223999,0 C42.8956528,2.8477001,37.311657,0.0039,29.6114559,0C21.8956566,0.0196,5.9610558,4.9527001,5.9610558,20.0771999 c0,8.5790997,2.7294998,13.0101986,5.1377001,16.9194012c1.8056993,2.9325981,3.3661995,5.4657974,3.21,9.2700005 c-0.2891006,7.0200996-5.7617998,16.1236-5.8174,16.2148972c-0.1866007,0.3086014-0.1934004,0.6943016-0.0157003,1.0093002 C8.6524553,63.8051987,8.9854555,64,9.346756,64h29.8066978c0.3095016,0,0.6015015-0.144001,0.7910004-0.3890991 c0.1893997-0.2451019,0.2549019-0.5645027,0.1767998-0.8642998c-0.3671989-1.4028015-1.0107994-5.4472008,0.3916016-7.2929001 c0.4970016-0.652401,1.2265015-0.9771004,2.2333984-0.9922028c4.3798027-0.0673981,7.047802-0.8002968,8.3973999-2.3066978 c1.2968979-1.4477005,1.1259995-3.2411995,0.9755974-4.8232002c-0.0565987-0.5946999-0.1103973-1.1636009-0.0878983-1.6812019 c0.6338005-0.5140991,0.9921989-1.0560989,1.0937996-1.6473999c0.110302-0.6464996-0.1142998-1.1728973-0.3574982-1.5639992 c1.1114006-0.3358994,1.5830002-0.980999,1.782299-1.480999c0.4432983-1.1108017-0.0235023-2.357399-0.7373009-3.5985985 C58.1280556,35.8814011,58.0596542,33.4384995,58.0342522,33.1416016z M52.0284538,35.7984009 c-0.3145027,0.0775986-0.5723,0.3031998-0.6905022,0.6049995c-0.1190987,0.3017006-0.0838966,0.642498,0.0937996,0.9134979 c0.3721008,0.5674019,1.502903,2.2930031,1.2607002,2.8994026c-0.0545998,0.1367989-0.2929001,0.2636986-0.6532974,0.3486977 c-0.3828011,0.0898018-1.2783012,0.3013-1.5605011,1.0688019c-0.2559013,0.6939011,0.1610985,1.2621994,0.410099,1.6021004 c0.089901,0.1224976,0.2578011,0.3511009,0.2647018,0.4301987c0,0-0.0517998,0.2210999-0.6416016,0.6235008 c-0.232399,0.1591988-0.3876991,0.408699-0.4257965,0.6879997c-0.1182022,0.8496017-0.0361023,1.7103996,0.0419998,2.5429001 c0.1278992,1.3437996,0.2382965,2.5040016-0.4746017,3.3003006c-0.9248009,1.032299-3.2588005,1.5839996-6.9384995,1.6406975 c-1.6152,0.0244026-2.9286995,0.6416016-3.7958984,1.7851028C37.2598572,56.4317017,37.5948563,60.0834999,37.923954,62H11.066556 c1.6307993-2.9916992,5.0008993-9.8294983,5.2401991-15.6512985c0.1816006-4.4151001-1.6093998-7.3227997-3.5058994-10.4009018 c-2.2685003-3.6830978-4.8397999-7.8579006-4.8397999-15.8705997C7.9610558,6.46,22.5508556,2.0181,29.6172562,2 c0.0244999,0,0.0488987,0,0.0732994,0c7.982399,0,13.6552963,3.3965001,13.7118988,3.4306998 c0.1854973,0.1128001,0.402298,0.1611004,0.622097,0.1416001c0.047802-0.0112,5.8623009-0.4868002,8.4736023,8.8125 l0.0009995,0.0049c-0.2647018,0.0537004-0.7910004,0.0321999-1.2040977-0.0580997 c-0.3535042-0.0816002-0.7217026,0.0389996-0.9619026,0.3076c-0.2421989,0.2690001-0.3194008,0.6483994-0.2032013,0.9906998 c0.0166016,0.0479002,1.6065025,4.8495998-0.009697,10.1147995c-0.0889015,0.2881012-0.0419998,0.6009998,0.1259995,0.8509998 c1.8232002,2.7124004,4.7030983,5.8638,5.7118988,6.9424019C55.7403526,34.0331993,54.9415512,35.078701,52.0284538,35.7984009z" style="fill: rgb(157, 157, 157);"/>
    </g>
  </g>
  <path d="M 233.184 55.196 C 232.021 55.19 230.86 55.19 229.698 55.214 C 225.43 55.303 221.162 55.597 216.919 56.064 C 217.13 56.171 217.265 56.268 217.217 56.343 L 201.327 81.315 L 248.182 112.619 L 248.102 112.738 L 292.877 112.915 L 306.705 83.987 L 288.855 66.712 C 278.796 62.408 268.255 59.254 257.492 57.353 C 249.473 55.933 241.329 55.226 233.185 55.196 L 233.184 55.196 Z M 192.533 89.665 L 145.837 112.955 L 137.079 175.267 L 169.629 196.578 L 229.441 169.073 L 238.872 120.633 L 192.533 89.665 Z M 317.008 89.883 L 303.535 118.06 L 326.834 164.108 L 366.179 188.743 L 373.351 175.267 C 373.493 175.357 373.637 175.522 373.766 175.742 C 373.279 172.604 372.682 169.477 371.984 166.382 C 367.897 148.278 360.2 130.946 349.48 115.744 C 343.73 107.593 337.101 100.054 329.765 93.265 L 317.008 89.883 Z M 125.135 104.446 C 120.756 109.541 116.73 114.933 113.127 120.594 C 103.19 136.211 96.365 153.833 93.197 172.081 C 91.653 180.971 90.975 190.016 91.155 199.052 L 103.994 202.277 L 124.934 176.632 L 134.108 111.372 L 125.134 104.446 L 125.135 104.446 Z M 323.386 175.901 L 288.003 204.236 L 285.804 268.249 L 310.925 281.627 L 359.86 250.224 L 362.652 200.358 L 362.593 200.458 L 323.386 175.9 L 323.386 175.901 Z M 234.096 179.957 L 174.483 207.382 L 173.711 255.902 L 230.232 292.233 L 273.936 269.16 L 276.115 204.732 L 234.095 179.957 L 234.096 179.957 Z M 91.948 211.459 C 92.527 216.801 93.401 222.107 94.583 227.348 C 98.67 245.452 106.387 262.783 117.109 277.985 C 119.565 281.467 122.195 284.826 124.953 288.077 L 119.011 257.584 L 119.09 257.563 L 101.953 213.971 L 91.948 211.459 Z M 166.242 265.183 L 133.573 270.346 L 139.991 303.334 C 145.429 308.076 151.217 312.408 157.309 316.274 C 166.571 322.153 176.537 326.963 186.905 330.581 L 226.608 321.912 L 223.854 302.204 L 166.242 265.18 L 166.242 265.183 Z M 357.976 265.5 L 317.263 291.619 L 290.636 321.618 L 293.43 325.514 C 301.057 322.004 308.374 317.825 315.244 313.028 C 330.439 302.416 343.521 288.773 353.459 273.156 C 355.052 270.657 356.547 268.096 357.976 265.498 L 357.976 265.5 Z M 280.138 327.336 L 229.459 333.431 L 212.996 337.011 C 230.109 339.544 247.686 338.939 264.546 335.23 C 270.513 333.917 276.39 332.196 282.139 330.125 L 280.138 327.335 L 280.138 327.336 Z" style="fill: rgb(162, 162, 162);"/>
</svg>