<?xml version="1.0" encoding="utf-8"?>
<svg xmlns="http://www.w3.org/2000/svg" viewBox="0 0 500 500">
  <g id="Layer_1" style="" transform="matrix(9.32573, 0, 0, 7.59689, -645.539, -447.247)">
    <g id="Brain-power_1_" transform="matrix(1, 0, 0, 1, 63.8254, 60.0304)">
      <path d="M58.0342522,33.1416016c-0.0185013-0.2275009-0.1161957-0.4419022-0.2733994-0.6069031 c-0.0360985-0.0375977-3.4618988-3.6254978-5.5917969-6.6713982c1.0966988-3.9526005,0.6405983-7.5419998,0.2304955-9.4496994 c0.592701-0.0395012,1.2168007-0.2085018,1.6473999-0.6621008c0.2627029-0.2768002,0.6612015-0.8926001,0.3770027-1.9071999 C51.7217522,4.2221999,45.7667542,3.5669,44.1973534,3.5669c-0.0078011,0-0.0156021,0-0.0223999,0 C42.8956528,2.8477001,37.311657,0.0039,29.6114559,0C21.8956566,0.0196,5.9610558,4.9527001,5.9610558,20.0771999 c0,8.5790997,2.7294998,13.0101986,5.1377001,16.9194012c1.8056993,2.9325981,3.3661995,5.4657974,3.21,9.2700005 c-0.2891006,7.0200996-5.7617998,16.1236-5.8174,16.2148972c-0.1866007,0.3086014-0.1934004,0.6943016-0.0157003,1.0093002 C8.6524553,63.8051987,8.9854555,64,9.346756,64h29.8066978c0.3095016,0,0.6015015-0.144001,0.7910004-0.3890991 c0.1893997-0.2451019,0.2549019-0.5645027,0.1767998-0.8642998c-0.3671989-1.4028015-1.0107994-5.4472008,0.3916016-7.2929001 c0.4970016-0.652401,1.2265015-0.9771004,2.2333984-0.9922028c4.3798027-0.0673981,7.047802-0.8002968,8.3973999-2.3066978 c1.2968979-1.4477005,1.1259995-3.2411995,0.9755974-4.8232002c-0.0565987-0.5946999-0.1103973-1.1636009-0.0878983-1.6812019 c0.6338005-0.5140991,0.9921989-1.0560989,1.0937996-1.6473999c0.110302-0.6464996-0.1142998-1.1728973-0.3574982-1.5639992 c1.1114006-0.3358994,1.5830002-0.980999,1.782299-1.480999c0.4432983-1.1108017-0.0235023-2.357399-0.7373009-3.5985985 C58.1280556,35.8814011,58.0596542,33.4384995,58.0342522,33.1416016z M52.0284538,35.7984009 c-0.3145027,0.0775986-0.5723,0.3031998-0.6905022,0.6049995c-0.1190987,0.3017006-0.0838966,0.642498,0.0937996,0.9134979 c0.3721008,0.5674019,1.502903,2.2930031,1.2607002,2.8994026c-0.0545998,0.1367989-0.2929001,0.2636986-0.6532974,0.3486977 c-0.3828011,0.0898018-1.2783012,0.3013-1.5605011,1.0688019c-0.2559013,0.6939011,0.1610985,1.2621994,0.410099,1.6021004 c0.089901,0.1224976,0.2578011,0.3511009,0.2647018,0.4301987c0,0-0.0517998,0.2210999-0.6416016,0.6235008 c-0.232399,0.1591988-0.3876991,0.408699-0.4257965,0.6879997c-0.1182022,0.8496017-0.0361023,1.7103996,0.0419998,2.5429001 c0.1278992,1.3437996,0.2382965,2.5040016-0.4746017,3.3003006c-0.9248009,1.032299-3.2588005,1.5839996-6.9384995,1.6406975 c-1.6152,0.0244026-2.9286995,0.6416016-3.7958984,1.7851028C37.2598572,56.4317017,37.5948563,60.0834999,37.923954,62H11.066556 c1.6307993-2.9916992,5.0008993-9.8294983,5.2401991-15.6512985c0.1816006-4.4151001-1.6093998-7.3227997-3.5058994-10.4009018 c-2.2685003-3.6830978-4.8397999-7.8579006-4.8397999-15.8705997C7.9610558,6.46,22.5508556,2.0181,29.6172562,2 c0.0244999,0,0.0488987,0,0.0732994,0c7.982399,0,13.6552963,3.3965001,13.7118988,3.4306998 c0.1854973,0.1128001,0.402298,0.1611004,0.622097,0.1416001c0.047802-0.0112,5.8623009-0.4868002,8.4736023,8.8125 l0.0009995,0.0049c-0.2647018,0.0537004-0.7910004,0.0321999-1.2040977-0.0580997 c-0.3535042-0.0816002-0.7217026,0.0389996-0.9619026,0.3076c-0.2421989,0.2690001-0.3194008,0.6483994-0.2032013,0.9906998 c0.0166016,0.0479002,1.6065025,4.8495998-0.009697,10.1147995c-0.0889015,0.2881012-0.0419998,0.6009998,0.1259995,0.8509998 c1.8232002,2.7124004,4.7030983,5.8638,5.7118988,6.9424019C55.7403526,34.0331993,54.9415512,35.078701,52.0284538,35.7984009z" style="fill: rgb(0, 198, 222);"/>
    </g>
  </g>
  <path d="M 231.326 48.555 C 230.101 48.549 228.877 48.549 227.653 48.574 C 223.156 48.667 218.658 48.975 214.187 49.464 C 214.41 49.576 214.552 49.678 214.501 49.756 L 197.758 75.899 L 247.13 108.67 L 247.045 108.795 L 294.225 108.98 L 308.796 78.696 L 289.987 60.611 C 279.388 56.105 268.281 52.804 256.94 50.813 C 248.49 49.327 239.908 48.587 231.327 48.555 L 231.326 48.555 Z M 188.492 84.64 L 139.288 109.022 L 130.059 174.255 L 164.357 196.565 L 227.382 167.771 L 237.319 117.06 L 188.492 84.64 Z M 319.652 84.868 L 305.456 114.366 L 330.006 162.573 L 371.464 188.363 L 379.021 174.255 C 379.171 174.349 379.323 174.522 379.459 174.753 C 378.945 171.467 378.316 168.194 377.581 164.954 C 373.274 146.001 365.164 127.856 353.868 111.942 C 347.809 103.409 340.824 95.516 333.094 88.409 L 319.652 84.868 Z M 117.474 100.114 C 112.859 105.448 108.617 111.093 104.821 117.019 C 94.35 133.368 87.158 151.816 83.82 170.92 C 82.193 180.227 81.479 189.696 81.669 199.155 L 95.197 202.531 L 117.262 175.684 L 126.929 107.365 L 117.473 100.114 L 117.474 100.114 Z M 326.373 174.919 L 289.089 204.582 L 286.772 271.596 L 313.242 285.601 L 364.806 252.726 L 367.748 200.523 L 367.686 200.627 L 326.373 174.918 L 326.373 174.919 Z M 232.287 179.165 L 169.472 207.876 L 168.659 258.67 L 228.215 296.705 L 274.267 272.55 L 276.563 205.102 L 232.286 179.165 L 232.287 179.165 Z M 82.504 212.144 C 83.114 217.736 84.035 223.291 85.281 228.778 C 89.587 247.731 97.719 265.874 109.017 281.789 C 111.605 285.434 114.376 288.95 117.282 292.354 L 111.021 260.431 L 111.104 260.409 L 93.047 214.774 L 82.504 212.144 Z M 160.789 268.387 L 126.365 273.792 L 133.128 308.326 C 138.858 313.29 144.957 317.825 151.376 321.873 C 161.135 328.027 171.636 333.063 182.561 336.85 L 224.397 327.775 L 221.495 307.143 L 160.789 268.383 L 160.789 268.387 Z M 362.821 268.718 L 319.921 296.062 L 291.864 327.467 L 294.808 331.546 C 302.844 327.871 310.554 323.496 317.793 318.474 C 333.805 307.365 347.589 293.082 358.061 276.733 C 359.74 274.117 361.315 271.436 362.821 268.716 L 362.821 268.718 Z M 280.802 333.453 L 227.401 339.834 L 210.054 343.582 C 228.086 346.234 246.607 345.6 264.372 341.717 C 270.66 340.343 276.853 338.541 282.91 336.373 L 280.802 333.452 L 280.802 333.453 Z" style="fill: rgb(0, 168, 216);"/>
</svg>